<mxfile host="app.diagrams.net" modified="2023-09-01T04:53:39.206Z" agent="Mozilla/5.0 (Windows NT 10.0; Win64; x64) AppleWebKit/537.36 (KHTML, like Gecko) Chrome/116.0.0.0 Safari/537.36 Edg/116.0.1938.62" etag="Apr446jRLZ1JGYTWi9wO" version="21.7.1" type="github">
  <diagram name="Page-1" id="_3taAUN7aJ5koNvZiNKl">
    <mxGraphModel dx="951" dy="549" grid="1" gridSize="10" guides="1" tooltips="1" connect="1" arrows="1" fold="1" page="1" pageScale="1" pageWidth="850" pageHeight="1100" math="0" shadow="0">
      <root>
        <mxCell id="0" />
        <mxCell id="1" parent="0" />
        <mxCell id="TOH4lSsbGCEATRDTj4Fx-68" value="" style="edgeStyle=orthogonalEdgeStyle;rounded=0;orthogonalLoop=1;jettySize=auto;html=1;" parent="1" source="TOH4lSsbGCEATRDTj4Fx-61" target="TOH4lSsbGCEATRDTj4Fx-67" edge="1">
          <mxGeometry relative="1" as="geometry" />
        </mxCell>
        <mxCell id="TOH4lSsbGCEATRDTj4Fx-61" value="Start" style="ellipse;html=1;shape=startState;" parent="1" vertex="1">
          <mxGeometry x="80" width="40" height="40" as="geometry" />
        </mxCell>
        <mxCell id="TOH4lSsbGCEATRDTj4Fx-71" value="" style="edgeStyle=orthogonalEdgeStyle;rounded=0;orthogonalLoop=1;jettySize=auto;html=1;" parent="1" source="TOH4lSsbGCEATRDTj4Fx-67" target="TOH4lSsbGCEATRDTj4Fx-70" edge="1">
          <mxGeometry relative="1" as="geometry" />
        </mxCell>
        <mxCell id="TOH4lSsbGCEATRDTj4Fx-67" value="&lt;b&gt;&lt;font style=&quot;font-size: 9px;&quot;&gt;Player Running&lt;/font&gt;&lt;/b&gt;" style="whiteSpace=wrap;html=1;rounded=1;" parent="1" vertex="1">
          <mxGeometry x="55" y="60" width="90" height="30" as="geometry" />
        </mxCell>
        <mxCell id="TOH4lSsbGCEATRDTj4Fx-86" style="edgeStyle=orthogonalEdgeStyle;rounded=0;orthogonalLoop=1;jettySize=auto;html=1;entryX=0;entryY=0.5;entryDx=0;entryDy=0;" parent="1" source="TOH4lSsbGCEATRDTj4Fx-70" target="TOH4lSsbGCEATRDTj4Fx-88" edge="1">
          <mxGeometry relative="1" as="geometry">
            <mxPoint x="169.9999999999999" y="150" as="targetPoint" />
          </mxGeometry>
        </mxCell>
        <mxCell id="O6jFMOM33L-5rmhprsdd-16" value="&lt;b&gt;Yes&lt;/b&gt;" style="edgeLabel;html=1;align=center;verticalAlign=middle;resizable=0;points=[];" parent="TOH4lSsbGCEATRDTj4Fx-86" vertex="1" connectable="0">
          <mxGeometry x="-0.4605" y="-1" relative="1" as="geometry">
            <mxPoint x="6" y="-1" as="offset" />
          </mxGeometry>
        </mxCell>
        <mxCell id="O6jFMOM33L-5rmhprsdd-14" style="edgeStyle=orthogonalEdgeStyle;orthogonalLoop=1;jettySize=auto;html=1;shadow=0;rounded=1;" parent="1" source="TOH4lSsbGCEATRDTj4Fx-70" target="TOH4lSsbGCEATRDTj4Fx-67" edge="1">
          <mxGeometry relative="1" as="geometry">
            <mxPoint x="-30" y="80" as="targetPoint" />
            <Array as="points">
              <mxPoint x="10" y="150" />
              <mxPoint x="10" y="75" />
            </Array>
          </mxGeometry>
        </mxCell>
        <mxCell id="O6jFMOM33L-5rmhprsdd-15" value="&lt;b&gt;No&lt;/b&gt;" style="edgeLabel;html=1;align=center;verticalAlign=middle;resizable=0;points=[];" parent="O6jFMOM33L-5rmhprsdd-14" vertex="1" connectable="0">
          <mxGeometry x="-0.7678" y="-2" relative="1" as="geometry">
            <mxPoint y="2" as="offset" />
          </mxGeometry>
        </mxCell>
        <mxCell id="TOH4lSsbGCEATRDTj4Fx-70" value="&lt;font style=&quot;font-size: 9px;&quot;&gt;&lt;b&gt;&lt;font style=&quot;font-size: 9px;&quot;&gt;Player&lt;br&gt;&lt;/font&gt;&lt;/b&gt;&lt;b style=&quot;text-align: justify; background-color: initial;&quot;&gt;&lt;font style=&quot;font-size: 9px;&quot;&gt;&amp;nbsp; &amp;nbsp;Colliding?&lt;/font&gt;&lt;/b&gt;&lt;/font&gt;&lt;b&gt;&lt;font style=&quot;font-size: 9px;&quot;&gt;&lt;br&gt;&lt;/font&gt;&lt;/b&gt;" style="rhombus;whiteSpace=wrap;html=1;" parent="1" vertex="1">
          <mxGeometry x="60" y="110" width="80" height="80" as="geometry" />
        </mxCell>
        <mxCell id="O6jFMOM33L-5rmhprsdd-2" value="" style="edgeStyle=orthogonalEdgeStyle;rounded=0;orthogonalLoop=1;jettySize=auto;html=1;" parent="1" source="TOH4lSsbGCEATRDTj4Fx-88" target="O6jFMOM33L-5rmhprsdd-1" edge="1">
          <mxGeometry relative="1" as="geometry" />
        </mxCell>
        <mxCell id="O6jFMOM33L-5rmhprsdd-3" value="&lt;b&gt;Collectable&lt;/b&gt;" style="edgeLabel;html=1;align=center;verticalAlign=middle;resizable=0;points=[];" parent="O6jFMOM33L-5rmhprsdd-2" vertex="1" connectable="0">
          <mxGeometry x="-0.3505" relative="1" as="geometry">
            <mxPoint as="offset" />
          </mxGeometry>
        </mxCell>
        <mxCell id="bqE7X_pYHSAupmpN1YVM-16" style="edgeStyle=orthogonalEdgeStyle;rounded=1;orthogonalLoop=1;jettySize=auto;html=1;exitX=0.5;exitY=0;exitDx=0;exitDy=0;entryX=0;entryY=0.5;entryDx=0;entryDy=0;" edge="1" parent="1" source="TOH4lSsbGCEATRDTj4Fx-88" target="bqE7X_pYHSAupmpN1YVM-1">
          <mxGeometry relative="1" as="geometry" />
        </mxCell>
        <mxCell id="bqE7X_pYHSAupmpN1YVM-17" value="&lt;b&gt;Obstacle&lt;/b&gt;" style="edgeLabel;html=1;align=center;verticalAlign=middle;resizable=0;points=[];" vertex="1" connectable="0" parent="bqE7X_pYHSAupmpN1YVM-16">
          <mxGeometry x="-0.5763" y="-3" relative="1" as="geometry">
            <mxPoint as="offset" />
          </mxGeometry>
        </mxCell>
        <mxCell id="TOH4lSsbGCEATRDTj4Fx-88" value="&lt;span style=&quot;font-size: 9px;&quot;&gt;&lt;b&gt;Check &lt;br&gt;Entity&lt;br&gt;Tag&lt;/b&gt;&lt;/span&gt;" style="rhombus;whiteSpace=wrap;html=1;" parent="1" vertex="1">
          <mxGeometry x="190" y="110" width="80" height="80" as="geometry" />
        </mxCell>
        <mxCell id="bqE7X_pYHSAupmpN1YVM-26" style="edgeStyle=orthogonalEdgeStyle;rounded=0;orthogonalLoop=1;jettySize=auto;html=1;entryX=0.5;entryY=0;entryDx=0;entryDy=0;" edge="1" parent="1" source="TOH4lSsbGCEATRDTj4Fx-111" target="TOH4lSsbGCEATRDTj4Fx-119">
          <mxGeometry relative="1" as="geometry" />
        </mxCell>
        <mxCell id="TOH4lSsbGCEATRDTj4Fx-111" value="&lt;font style=&quot;font-size: 9px;&quot;&gt;&lt;b&gt;defeat player.&lt;/b&gt;&lt;/font&gt;" style="ellipse;whiteSpace=wrap;html=1;align=center;fontSize=8;" parent="1" vertex="1">
          <mxGeometry x="430" y="60" width="100" height="40" as="geometry" />
        </mxCell>
        <mxCell id="bqE7X_pYHSAupmpN1YVM-25" style="edgeStyle=orthogonalEdgeStyle;rounded=0;orthogonalLoop=1;jettySize=auto;html=1;entryX=0.5;entryY=0;entryDx=0;entryDy=0;" edge="1" parent="1" source="TOH4lSsbGCEATRDTj4Fx-119" target="YJidKAtFfOV623_aB0fk-3">
          <mxGeometry relative="1" as="geometry" />
        </mxCell>
        <mxCell id="TOH4lSsbGCEATRDTj4Fx-119" value="&lt;font style=&quot;font-size: 9px;&quot;&gt;&lt;b&gt;Save stats&lt;br&gt;- Distance travelled&lt;br&gt;- coins collected&lt;/b&gt;&lt;/font&gt;" style="ellipse;whiteSpace=wrap;html=1;align=center;fontSize=8;" parent="1" vertex="1">
          <mxGeometry x="430" y="130" width="100" height="40" as="geometry" />
        </mxCell>
        <mxCell id="TOH4lSsbGCEATRDTj4Fx-121" value="&lt;font style=&quot;font-size: 9px;&quot;&gt;End&lt;/font&gt;" style="ellipse;html=1;shape=endState;" parent="1" vertex="1">
          <mxGeometry x="465" y="275" width="30" height="30" as="geometry" />
        </mxCell>
        <mxCell id="O6jFMOM33L-5rmhprsdd-10" style="edgeStyle=orthogonalEdgeStyle;rounded=0;orthogonalLoop=1;jettySize=auto;html=1;exitX=0;exitY=0.5;exitDx=0;exitDy=0;entryX=1;entryY=0.5;entryDx=0;entryDy=0;" parent="1" source="O6jFMOM33L-5rmhprsdd-1" target="O6jFMOM33L-5rmhprsdd-9" edge="1">
          <mxGeometry relative="1" as="geometry" />
        </mxCell>
        <mxCell id="O6jFMOM33L-5rmhprsdd-11" value="&lt;b&gt;Powerup&lt;/b&gt;" style="edgeLabel;html=1;align=center;verticalAlign=middle;resizable=0;points=[];" parent="O6jFMOM33L-5rmhprsdd-10" vertex="1" connectable="0">
          <mxGeometry x="-0.3086" relative="1" as="geometry">
            <mxPoint x="-6" as="offset" />
          </mxGeometry>
        </mxCell>
        <mxCell id="O6jFMOM33L-5rmhprsdd-19" style="edgeStyle=orthogonalEdgeStyle;rounded=1;orthogonalLoop=1;jettySize=auto;html=1;entryX=1;entryY=0.5;entryDx=0;entryDy=0;" parent="1" source="O6jFMOM33L-5rmhprsdd-1" target="O6jFMOM33L-5rmhprsdd-18" edge="1">
          <mxGeometry relative="1" as="geometry">
            <Array as="points">
              <mxPoint x="230" y="350" />
            </Array>
          </mxGeometry>
        </mxCell>
        <mxCell id="O6jFMOM33L-5rmhprsdd-22" value="&lt;b&gt;Coin&lt;/b&gt;" style="edgeLabel;html=1;align=center;verticalAlign=middle;resizable=0;points=[];" parent="O6jFMOM33L-5rmhprsdd-19" vertex="1" connectable="0">
          <mxGeometry x="0.2268" y="1" relative="1" as="geometry">
            <mxPoint as="offset" />
          </mxGeometry>
        </mxCell>
        <mxCell id="O6jFMOM33L-5rmhprsdd-1" value="&lt;font style=&quot;font-size: 9px;&quot;&gt;&lt;b style=&quot;&quot;&gt;Check&lt;br&gt;collectable&lt;br&gt;type&lt;/b&gt;&lt;/font&gt;" style="rhombus;whiteSpace=wrap;html=1;" parent="1" vertex="1">
          <mxGeometry x="190" y="250" width="80" height="80" as="geometry" />
        </mxCell>
        <mxCell id="O6jFMOM33L-5rmhprsdd-12" style="edgeStyle=orthogonalEdgeStyle;rounded=1;orthogonalLoop=1;jettySize=auto;html=1;entryX=0;entryY=0.5;entryDx=0;entryDy=0;exitX=0.001;exitY=0.394;exitDx=0;exitDy=0;exitPerimeter=0;" parent="1" source="O6jFMOM33L-5rmhprsdd-9" edge="1">
          <mxGeometry relative="1" as="geometry">
            <mxPoint x="10" y="290" as="sourcePoint" />
            <mxPoint x="55" y="75" as="targetPoint" />
            <Array as="points">
              <mxPoint x="10" y="286" />
              <mxPoint x="10" y="75" />
            </Array>
          </mxGeometry>
        </mxCell>
        <mxCell id="O6jFMOM33L-5rmhprsdd-9" value="&lt;font style=&quot;font-size: 9px;&quot;&gt;&lt;b&gt;Apply Powerup Affect&lt;/b&gt;&lt;/font&gt;" style="ellipse;whiteSpace=wrap;html=1;align=center;" parent="1" vertex="1">
          <mxGeometry x="20" y="270" width="100" height="40" as="geometry" />
        </mxCell>
        <mxCell id="O6jFMOM33L-5rmhprsdd-21" style="edgeStyle=orthogonalEdgeStyle;rounded=1;orthogonalLoop=1;jettySize=auto;html=1;entryX=0;entryY=0.5;entryDx=0;entryDy=0;" parent="1" source="O6jFMOM33L-5rmhprsdd-18" target="TOH4lSsbGCEATRDTj4Fx-67" edge="1">
          <mxGeometry relative="1" as="geometry">
            <Array as="points">
              <mxPoint x="10" y="350" />
              <mxPoint x="10" y="75" />
            </Array>
          </mxGeometry>
        </mxCell>
        <mxCell id="O6jFMOM33L-5rmhprsdd-18" value="&lt;font style=&quot;font-size: 9px;&quot;&gt;&lt;b&gt;Collect coin&lt;/b&gt;&lt;/font&gt;" style="ellipse;whiteSpace=wrap;html=1;align=center;" parent="1" vertex="1">
          <mxGeometry x="20" y="330" width="100" height="40" as="geometry" />
        </mxCell>
        <mxCell id="YJidKAtFfOV623_aB0fk-9" style="edgeStyle=orthogonalEdgeStyle;rounded=0;orthogonalLoop=1;jettySize=auto;html=1;entryX=0.5;entryY=0;entryDx=0;entryDy=0;" parent="1" source="YJidKAtFfOV623_aB0fk-3" target="TOH4lSsbGCEATRDTj4Fx-121" edge="1">
          <mxGeometry relative="1" as="geometry" />
        </mxCell>
        <mxCell id="YJidKAtFfOV623_aB0fk-3" value="&lt;font size=&quot;1&quot;&gt;&lt;b&gt;Start Results Menu&lt;/b&gt;&lt;/font&gt;" style="ellipse;whiteSpace=wrap;html=1;align=center;fontSize=8;" parent="1" vertex="1">
          <mxGeometry x="430" y="200" width="100" height="40" as="geometry" />
        </mxCell>
        <mxCell id="bqE7X_pYHSAupmpN1YVM-8" style="edgeStyle=orthogonalEdgeStyle;rounded=0;orthogonalLoop=1;jettySize=auto;html=1;entryX=0;entryY=0.5;entryDx=0;entryDy=0;" edge="1" parent="1" source="bqE7X_pYHSAupmpN1YVM-1" target="TOH4lSsbGCEATRDTj4Fx-111">
          <mxGeometry relative="1" as="geometry" />
        </mxCell>
        <mxCell id="bqE7X_pYHSAupmpN1YVM-9" value="&lt;b&gt;No&lt;/b&gt;" style="edgeLabel;html=1;align=center;verticalAlign=middle;resizable=0;points=[];" vertex="1" connectable="0" parent="bqE7X_pYHSAupmpN1YVM-8">
          <mxGeometry x="-0.711" relative="1" as="geometry">
            <mxPoint x="13" as="offset" />
          </mxGeometry>
        </mxCell>
        <mxCell id="bqE7X_pYHSAupmpN1YVM-14" style="edgeStyle=orthogonalEdgeStyle;rounded=0;orthogonalLoop=1;jettySize=auto;html=1;entryX=0.5;entryY=0;entryDx=0;entryDy=0;" edge="1" parent="1" source="bqE7X_pYHSAupmpN1YVM-1" target="bqE7X_pYHSAupmpN1YVM-13">
          <mxGeometry relative="1" as="geometry" />
        </mxCell>
        <mxCell id="bqE7X_pYHSAupmpN1YVM-15" value="&lt;b&gt;Yes&lt;/b&gt;" style="edgeLabel;html=1;align=center;verticalAlign=middle;resizable=0;points=[];" vertex="1" connectable="0" parent="bqE7X_pYHSAupmpN1YVM-14">
          <mxGeometry x="-0.2776" y="1" relative="1" as="geometry">
            <mxPoint as="offset" />
          </mxGeometry>
        </mxCell>
        <mxCell id="bqE7X_pYHSAupmpN1YVM-1" value="&lt;font size=&quot;1&quot;&gt;Player Have Powerup?&lt;/font&gt;" style="rhombus;whiteSpace=wrap;html=1;" vertex="1" parent="1">
          <mxGeometry x="280" y="40" width="80" height="80" as="geometry" />
        </mxCell>
        <mxCell id="bqE7X_pYHSAupmpN1YVM-19" style="edgeStyle=orthogonalEdgeStyle;rounded=0;orthogonalLoop=1;jettySize=auto;html=1;entryX=0.5;entryY=0;entryDx=0;entryDy=0;" edge="1" parent="1" source="bqE7X_pYHSAupmpN1YVM-13" target="bqE7X_pYHSAupmpN1YVM-18">
          <mxGeometry relative="1" as="geometry" />
        </mxCell>
        <mxCell id="bqE7X_pYHSAupmpN1YVM-21" value="&lt;b&gt;Shield&lt;/b&gt;" style="edgeLabel;html=1;align=center;verticalAlign=middle;resizable=0;points=[];" vertex="1" connectable="0" parent="bqE7X_pYHSAupmpN1YVM-19">
          <mxGeometry x="-0.3869" y="-2" relative="1" as="geometry">
            <mxPoint as="offset" />
          </mxGeometry>
        </mxCell>
        <mxCell id="bqE7X_pYHSAupmpN1YVM-23" style="edgeStyle=orthogonalEdgeStyle;rounded=1;orthogonalLoop=1;jettySize=auto;html=1;entryX=0;entryY=0.5;entryDx=0;entryDy=0;" edge="1" parent="1" source="bqE7X_pYHSAupmpN1YVM-13" target="TOH4lSsbGCEATRDTj4Fx-111">
          <mxGeometry relative="1" as="geometry" />
        </mxCell>
        <mxCell id="bqE7X_pYHSAupmpN1YVM-24" value="&lt;b&gt;Other&lt;/b&gt;" style="edgeLabel;html=1;align=center;verticalAlign=middle;resizable=0;points=[];" vertex="1" connectable="0" parent="bqE7X_pYHSAupmpN1YVM-23">
          <mxGeometry x="-0.0812" y="1" relative="1" as="geometry">
            <mxPoint x="-4" y="26" as="offset" />
          </mxGeometry>
        </mxCell>
        <mxCell id="bqE7X_pYHSAupmpN1YVM-13" value="&lt;font style=&quot;font-size: 9px;&quot;&gt;&lt;b style=&quot;&quot;&gt;Check&lt;br&gt;powerup&lt;br&gt;type&lt;/b&gt;&lt;/font&gt;" style="rhombus;whiteSpace=wrap;html=1;" vertex="1" parent="1">
          <mxGeometry x="280" y="190" width="80" height="80" as="geometry" />
        </mxCell>
        <mxCell id="bqE7X_pYHSAupmpN1YVM-20" style="edgeStyle=orthogonalEdgeStyle;rounded=1;orthogonalLoop=1;jettySize=auto;html=1;exitX=0;exitY=0.5;exitDx=0;exitDy=0;entryX=0;entryY=0.5;entryDx=0;entryDy=0;" edge="1" parent="1" source="bqE7X_pYHSAupmpN1YVM-18" target="TOH4lSsbGCEATRDTj4Fx-67">
          <mxGeometry relative="1" as="geometry">
            <Array as="points">
              <mxPoint x="10" y="390" />
              <mxPoint x="10" y="75" />
            </Array>
          </mxGeometry>
        </mxCell>
        <mxCell id="bqE7X_pYHSAupmpN1YVM-18" value="&lt;font size=&quot;1&quot;&gt;Destroy Shield&lt;br&gt;- Remove powerup from player&lt;br&gt;&lt;/font&gt;" style="ellipse;whiteSpace=wrap;html=1;align=center;fontSize=8;" vertex="1" parent="1">
          <mxGeometry x="270" y="370" width="100" height="40" as="geometry" />
        </mxCell>
      </root>
    </mxGraphModel>
  </diagram>
</mxfile>
